solid OpenSCAD_Model
  facet normal -0.861332 -0.497289 -0.10398
    outer loop
      vertex -7.62052 -5.13013 7.76312
      vertex -8.23323 -4.00012 7.43426
      vertex -7.58082 -5.13013 7.43426
    endloop
  endfacet
  facet normal -0.861335 -0.497286 -0.103965
    outer loop
      vertex -8.23323 -4.00012 7.43426
      vertex -7.62052 -5.13013 7.76312
      vertex -8.32546 -4.15986 8.96244
    endloop
  endfacet
  facet normal 0.751027 -0.433605 -0.49794
    outer loop
      vertex 7.83293 -3.48744 5.56816
      vertex 6.14298 -4.46314 3.8689
      vertex 6.93668 -3.08841 3.8689
    endloop
  endfacet
  facet normal 0 0.994582 -0.10396
    outer loop
      vertex 0.652403 9.13025 7.43426
      vertex -0.534647 9.33422 9.38564
      vertex 0.534638 9.33422 9.38564
    endloop
  endfacet
  facet normal 0 0.994582 -0.10396
    outer loop
      vertex -0.534647 9.33422 9.38564
      vertex 0.652403 9.13025 7.43426
      vertex -0.652412 9.13025 7.43426
    endloop
  endfacet
  facet normal -0.154892 0.728691 -0.667097
    outer loop
      vertex -0.793699 7.55155 3.8689
      vertex -2.13323 6.5654 3.10272
      vertex -1.67161 7.36494 3.8689
    endloop
  endfacet
  facet normal -0.154888 0.728688 -0.667101
    outer loop
      vertex -2.13323 6.5654 3.10272
      vertex -0.793699 7.55155 3.8689
      vertex -1.94069 5.97284 2.41075
    endloop
  endfacet
  facet normal 0.438373 -0.394711 -0.807485
    outer loop
      vertex 4.17965 -4.56063 2.34641
      vertex 5.0808 -3.69142 2.41075
      vertex 4.20229 -4.66711 2.41075
    endloop
  endfacet
  facet normal 0.438393 -0.394732 -0.807464
    outer loop
      vertex 5.0808 -3.69142 2.41075
      vertex 4.17965 -4.56063 2.34641
      vertex 5.00916 -3.63937 2.34641
    endloop
  endfacet
  facet normal 0 0.867211 -0.49794
    outer loop
      vertex 0.793699 7.55155 3.8689
      vertex -0.896249 8.52724 5.56816
      vertex 0.896249 8.52724 5.56816
    endloop
  endfacet
  facet normal 0 0.867211 -0.49794
    outer loop
      vertex -0.896249 8.52724 5.56816
      vertex 0.793699 7.55155 3.8689
      vertex -0.793699 7.55155 3.8689
    endloop
  endfacet
  facet normal 0.90496 -0.294059 -0.307535
    outer loop
      vertex 7.89105 -3.40746 5.66271
      vertex 7.83293 -3.48744 5.56816
      vertex 7.87049 -3.37185 5.56816
    endloop
  endfacet
  facet normal 0.553629 -0.498467 -0.667102
    outer loop
      vertex 4.20229 -4.66711 2.41075
      vertex 5.54242 -5.13013 3.8689
      vertex 4.61919 -5.13013 3.10271
    endloop
  endfacet
  facet normal 0.55362 -0.498482 -0.667099
    outer loop
      vertex 5.54242 -5.13013 3.8689
      vertex 4.20229 -4.66711 2.41075
      vertex 6.14298 -4.46314 3.8689
    endloop
  endfacet
  facet normal -0.586675 -0.0616531 -0.807473
    outer loop
      vertex -6.05636 -1.28732 2.34641
      vertex -6.14298 -1.30573 2.41075
      vertex -6.06208 -1.23289 2.34641
    endloop
  endfacet
  facet normal 0.553621 -0.498479 -0.6671
    outer loop
      vertex 6.14298 -4.46314 3.8689
      vertex 4.20229 -4.66711 2.41075
      vertex 5.0808 -3.69142 2.41075
    endloop
  endfacet
  facet normal -0.74088 -0.0778696 -0.667108
    outer loop
      vertex -6.14298 -1.30573 2.41075
      vertex -6.49476 -0.988992 2.76446
      vertex -6.22532 -0.522317 2.41075
    endloop
  endfacet
  facet normal 0.740881 -0.0778712 -0.667106
    outer loop
      vertex 6.49475 -0.988998 2.76445
      vertex 6.14298 -1.30573 2.41075
      vertex 6.22532 -0.522332 2.41075
    endloop
  endfacet
  facet normal 0.438367 -0.394714 -0.807487
    outer loop
      vertex 4.20229 -4.66711 2.41075
      vertex 4.14303 -4.6013 2.34641
      vertex 4.17965 -4.56063 2.34641
    endloop
  endfacet
  facet normal 0.154893 0.728691 -0.667097
    outer loop
      vertex 2.13322 6.56539 3.10271
      vertex 0.793699 7.55155 3.8689
      vertex 1.6716 7.36494 3.8689
    endloop
  endfacet
  facet normal 0.154891 0.728689 -0.667099
    outer loop
      vertex 0.793699 7.55155 3.8689
      vertex 2.13322 6.56539 3.10271
      vertex 1.94069 5.97284 2.41075
    endloop
  endfacet
  facet normal 0.561039 -0.18227 -0.807473
    outer loop
      vertex 6.14298 -1.30573 2.41075
      vertex 6.03945 -1.33937 2.34641
      vertex 6.05636 -1.28732 2.34641
    endloop
  endfacet
  facet normal 0.644471 -0.580266 -0.497944
    outer loop
      vertex 6.00121 -5.13013 4.46269
      vertex 6.93668 -5.03979 5.56816
      vertex 6.85534 -5.13013 5.56816
    endloop
  endfacet
  facet normal 0.644467 -0.580275 -0.49794
    outer loop
      vertex 6.93668 -5.03979 5.56816
      vertex 6.00121 -5.13013 4.46269
      vertex 6.14298 -4.46314 3.8689
    endloop
  endfacet
  facet normal 0.707146 -0.636698 -0.307507
    outer loop
      vertex 6.89646 -5.13013 5.66272
      vertex 6.85534 -5.13013 5.56816
      vertex 6.93668 -5.03979 5.56816
    endloop
  endfacet
  facet normal 0.824765 -0.267984 -0.497942
    outer loop
      vertex 7.77216 -3.20154 5.31363
      vertex 6.93668 -3.08841 3.8689
      vertex 7.21403 -2.23482 3.8689
    endloop
  endfacet
  facet normal 0.824762 -0.267996 -0.497941
    outer loop
      vertex 6.93668 -3.08841 3.8689
      vertex 7.77216 -3.20154 5.31363
      vertex 7.83293 -3.48744 5.56816
    endloop
  endfacet
  facet normal 0.707162 -0.636688 -0.30749
    outer loop
      vertex 7.06101 -5.13013 6.04115
      vertex 6.89646 -5.13013 5.66272
      vertex 6.93668 -5.03979 5.56816
    endloop
  endfacet
  facet normal -0.861332 -0.497292 -0.103958
    outer loop
      vertex -7.81635 -5.13013 9.38564
      vertex -8.32546 -4.15986 8.96244
      vertex -7.62052 -5.13013 7.76312
    endloop
  endfacet
  facet normal -0.86133 -0.497295 -0.103967
    outer loop
      vertex -8.32546 -4.15986 8.96244
      vertex -7.81635 -5.13013 9.38564
      vertex -8.351 -4.2041 9.38564
    endloop
  endfacet
  facet normal 0.302997 0.680567 -0.667099
    outer loop
      vertex 2.39088 6.11912 2.76446
      vertex 1.94069 5.97284 2.41075
      vertex 2.13322 6.56539 3.10271
    endloop
  endfacet
  facet normal -0.122647 0.577022 -0.807467
    outer loop
      vertex -1.91333 5.88862 2.34641
      vertex -1.94069 5.97284 2.41075
      vertex -1.85979 5.9 2.34641
    endloop
  endfacet
  facet normal 0.180296 0.848262 -0.49794
    outer loop
      vertex 1.11348 8.33165 5.31362
      vertex 0.896249 8.52724 5.56816
      vertex 1.01514 8.50197 5.56816
    endloop
  endfacet
  facet normal 0.303001 0.680563 -0.667102
    outer loop
      vertex 2.66031 5.65245 2.41075
      vertex 1.94069 5.97284 2.41075
      vertex 2.39088 6.11912 2.76446
    endloop
  endfacet
  facet normal 0.708507 -0.230209 -0.6671
    outer loop
      vertex 6.93668 -3.08841 3.8689
      vertex 6.7524 -1.43527 3.1027
      vertex 7.21403 -2.23482 3.8689
    endloop
  endfacet
  facet normal 0.708507 -0.230209 -0.6671
    outer loop
      vertex 6.7524 -1.43527 3.1027
      vertex 6.93668 -3.08841 3.8689
      vertex 6.14298 -1.30573 2.41075
    endloop
  endfacet
  facet normal 0.824067 -0.475777 -0.30749
    outer loop
      vertex 7.06101 -5.13013 6.04115
      vertex 7.83293 -3.48744 5.56816
      vertex 7.48377 -5.13013 7.17414
    endloop
  endfacet
  facet normal 0.824068 -0.475776 -0.307487
    outer loop
      vertex 7.83293 -3.48744 5.56816
      vertex 7.06101 -5.13013 6.04115
      vertex 6.93668 -5.03979 5.56816
    endloop
  endfacet
  facet normal 0.510893 -0.294967 -0.807455
    outer loop
      vertex 5.03653 -3.59197 2.34641
      vertex 5.73727 -2.55439 2.41075
      vertex 5.0808 -3.69142 2.41075
    endloop
  endfacet
  facet normal 0.510885 -0.294961 -0.807462
    outer loop
      vertex 5.73727 -2.55439 2.41075
      vertex 5.03653 -3.59197 2.34641
      vertex 5.65637 -2.51838 2.34641
    endloop
  endfacet
  facet normal -0.438367 -0.394714 -0.807487
    outer loop
      vertex -4.14303 -4.6013 2.34641
      vertex -4.20229 -4.66711 2.41075
      vertex -4.17965 -4.56063 2.34641
    endloop
  endfacet
  facet normal 0.70851 -0.230206 -0.667098
    outer loop
      vertex 6.93668 -3.08841 3.8689
      vertex 5.73727 -2.55439 2.41075
      vertex 6.14298 -1.30573 2.41075
    endloop
  endfacet
  facet normal 0.645163 -0.372485 -0.667098
    outer loop
      vertex 6.14298 -4.46314 3.8689
      vertex 5.73727 -2.55439 2.41075
      vertex 6.93668 -3.08841 3.8689
    endloop
  endfacet
  facet normal -0.64516 -0.372486 -0.6671
    outer loop
      vertex -5.0808 -3.69142 2.41075
      vertex -6.14298 -4.46314 3.8689
      vertex -5.73727 -2.55439 2.41075
    endloop
  endfacet
  facet normal 0.861334 -0.497289 -0.10396
    outer loop
      vertex 7.62052 -5.13013 7.76312
      vertex 8.23323 -4.00013 7.43426
      vertex 8.32545 -4.15987 8.96243
    endloop
  endfacet
  facet normal 0.86133 -0.497292 -0.10398
    outer loop
      vertex 8.23323 -4.00013 7.43426
      vertex 7.62052 -5.13013 7.76312
      vertex 7.58082 -5.13013 7.43426
    endloop
  endfacet
  facet normal 0.751027 -0.433606 -0.49794
    outer loop
      vertex 6.93668 -5.03979 5.56816
      vertex 6.14298 -4.46314 3.8689
      vertex 7.83293 -3.48744 5.56816
    endloop
  endfacet
  facet normal -0.904978 -0.29404 -0.307499
    outer loop
      vertex -7.83293 -3.48744 5.56816
      vertex -7.89105 -3.40745 5.66272
      vertex -7.87049 -3.37184 5.56816
    endloop
  endfacet
  facet normal -0.904978 -0.294049 -0.30749
    outer loop
      vertex -7.83293 -3.48744 5.56816
      vertex -7.97333 -3.54995 6.04115
      vertex -7.89105 -3.40745 5.66272
    endloop
  endfacet
  facet normal -0.708513 -0.230203 -0.667095
    outer loop
      vertex -6.93668 -3.08841 3.8689
      vertex -6.75241 -1.43527 3.10272
      vertex -6.14298 -1.30573 2.41075
    endloop
  endfacet
  facet normal -0.708506 -0.230206 -0.667101
    outer loop
      vertex -6.75241 -1.43527 3.10272
      vertex -6.93668 -3.08841 3.8689
      vertex -7.21403 -2.23481 3.8689
    endloop
  endfacet
  facet normal -0.824767 -0.267982 -0.497942
    outer loop
      vertex -6.93668 -3.08841 3.8689
      vertex -7.77215 -3.20151 5.3136
      vertex -7.21403 -2.23481 3.8689
    endloop
  endfacet
  facet normal -0.824764 -0.267991 -0.497941
    outer loop
      vertex -7.77215 -3.20151 5.3136
      vertex -6.93668 -3.08841 3.8689
      vertex -7.83293 -3.48744 5.56816
    endloop
  endfacet
  facet normal -0.586669 -0.0616614 -0.807476
    outer loop
      vertex -6.22532 -0.522317 2.41075
      vertex -6.06208 -1.23289 2.34641
      vertex -6.14298 -1.30573 2.41075
    endloop
  endfacet
  facet normal -0.58666 -0.0616586 -0.807483
    outer loop
      vertex -6.06208 -1.23289 2.34641
      vertex -6.22532 -0.522317 2.41075
      vertex -6.1504 -0.392556 2.34641
    endloop
  endfacet
  facet normal 0.19787 0.930754 -0.30748
    outer loop
      vertex 0.994584 8.53757 5.66271
      vertex 0.896249 8.52724 5.56816
      vertex 0.912312 8.68007 6.04112
    endloop
  endfacet
  facet normal 0.180309 0.848259 -0.497942
    outer loop
      vertex 0.793699 7.55155 3.8689
      vertex 1.11348 8.33165 5.31362
      vertex 1.6716 7.36494 3.8689
    endloop
  endfacet
  facet normal 0.180296 0.848262 -0.49794
    outer loop
      vertex 1.11348 8.33165 5.31362
      vertex 0.793699 7.55155 3.8689
      vertex 0.896249 8.52724 5.56816
    endloop
  endfacet
  facet normal 0.82407 -0.475774 -0.307485
    outer loop
      vertex 7.48377 -5.13013 7.17414
      vertex 7.97331 -3.54995 6.0411
      vertex 8.23323 -4.00013 7.43426
    endloop
  endfacet
  facet normal 0.824075 -0.475783 -0.30746
    outer loop
      vertex 7.48377 -5.13013 7.17414
      vertex 8.23323 -4.00013 7.43426
      vertex 7.58082 -5.13013 7.43426
    endloop
  endfacet
  facet normal 0.824068 -0.475775 -0.307488
    outer loop
      vertex 7.97331 -3.54995 6.0411
      vertex 7.48377 -5.13013 7.17414
      vertex 7.83293 -3.48744 5.56816
    endloop
  endfacet
  facet normal 0.82476 -0.267999 -0.497943
    outer loop
      vertex 7.83293 -3.48744 5.56816
      vertex 7.77216 -3.20154 5.31363
      vertex 7.87049 -3.37185 5.56816
    endloop
  endfacet
  facet normal 0.561042 -0.182292 -0.807466
    outer loop
      vertex 5.73727 -2.55439 2.41075
      vertex 6.03945 -1.33937 2.34641
      vertex 6.14298 -1.30573 2.41075
    endloop
  endfacet
  facet normal 0.56104 -0.182291 -0.807468
    outer loop
      vertex 6.03945 -1.33937 2.34641
      vertex 5.73727 -2.55439 2.41075
      vertex 5.65637 -2.51838 2.34641
    endloop
  endfacet
  facet normal 0.437881 -0.602689 -0.667103
    outer loop
      vertex 4.10387 -5.13013 2.76446
      vertex 3.565 -5.13013 2.41075
      vertex 4.20229 -4.66711 2.41075
    endloop
  endfacet
  facet normal -0.561039 -0.18227 -0.807473
    outer loop
      vertex -6.03945 -1.33937 2.34641
      vertex -6.14298 -1.30573 2.41075
      vertex -6.05636 -1.28732 2.34641
    endloop
  endfacet
  facet normal 0.510864 -0.294986 -0.807466
    outer loop
      vertex 5.0808 -3.69142 2.41075
      vertex 5.00916 -3.63937 2.34641
      vertex 5.03653 -3.59197 2.34641
    endloop
  endfacet
  facet normal 0.64516 -0.372486 -0.6671
    outer loop
      vertex 6.14298 -4.46314 3.8689
      vertex 5.0808 -3.69142 2.41075
      vertex 5.73727 -2.55439 2.41075
    endloop
  endfacet
  facet normal 0.586675 -0.0616531 -0.807473
    outer loop
      vertex 6.14298 -1.30573 2.41075
      vertex 6.05636 -1.28732 2.34641
      vertex 6.06208 -1.23289 2.34641
    endloop
  endfacet
  facet normal 0.740886 -0.0778836 -0.6671
    outer loop
      vertex 6.7524 -1.43527 3.1027
      vertex 6.14298 -1.30573 2.41075
      vertex 6.49475 -0.988998 2.76445
    endloop
  endfacet
  facet normal -0.751027 -0.433606 -0.49794
    outer loop
      vertex -6.93668 -5.03979 5.56816
      vertex -7.83293 -3.48744 5.56816
      vertex -6.14298 -4.46314 3.8689
    endloop
  endfacet
  facet normal 0.644463 -0.580277 -0.497942
    outer loop
      vertex 6.00121 -5.13013 4.46269
      vertex 5.54242 -5.13013 3.8689
      vertex 6.14298 -4.46314 3.8689
    endloop
  endfacet
  facet normal -0.707162 -0.636688 -0.30749
    outer loop
      vertex -6.89646 -5.13013 5.66272
      vertex -7.06101 -5.13013 6.04115
      vertex -6.93668 -5.03979 5.56816
    endloop
  endfacet
  facet normal -0.824774 -0.26798 -0.497931
    outer loop
      vertex -7.83293 -3.48744 5.56816
      vertex -7.87049 -3.37184 5.56816
      vertex -7.77215 -3.20151 5.3136
    endloop
  endfacet
  facet normal -0.740889 -0.0778925 -0.667096
    outer loop
      vertex -6.14298 -1.30573 2.41075
      vertex -6.75241 -1.43527 3.10272
      vertex -6.49476 -0.988992 2.76446
    endloop
  endfacet
  facet normal -0.751027 -0.433605 -0.49794
    outer loop
      vertex -6.14298 -4.46314 3.8689
      vertex -7.83293 -3.48744 5.56816
      vertex -6.93668 -3.08841 3.8689
    endloop
  endfacet
  facet normal -0.346719 -0.477237 -0.807484
    outer loop
      vertex -4.09875 -4.63347 2.34641
      vertex -4.20229 -4.66711 2.41075
      vertex -4.14303 -4.6013 2.34641
    endloop
  endfacet
  facet normal -0.303003 0.680555 -0.667109
    outer loop
      vertex -1.94069 5.97284 2.41075
      vertex -2.66032 5.65244 2.41075
      vertex -2.39089 6.11912 2.76446
    endloop
  endfacet
  facet normal -0.302993 0.680566 -0.667102
    outer loop
      vertex -1.94069 5.97284 2.41075
      vertex -2.39089 6.11912 2.76446
      vertex -2.13323 6.5654 3.10272
    endloop
  endfacet
  facet normal -0.239941 0.538916 -0.807464
    outer loop
      vertex -1.91333 5.88862 2.34641
      vertex -2.66032 5.65244 2.41075
      vertex -1.94069 5.97284 2.41075
    endloop
  endfacet
  facet normal -0.239939 0.538909 -0.807469
    outer loop
      vertex -2.66032 5.65244 2.41075
      vertex -1.91333 5.88862 2.34641
      vertex -2.73524 5.52268 2.34641
    endloop
  endfacet
  facet normal 0 0.951554 -0.307483
    outer loop
      vertex 0.652403 9.13025 7.43426
      vertex -0.912314 8.68009 6.04117
      vertex -0.652412 9.13025 7.43426
    endloop
  endfacet
  facet normal 2.00414e-06 0.951553 -0.307485
    outer loop
      vertex 0.912312 8.68007 6.04112
      vertex -0.912314 8.68009 6.04117
      vertex 0.652403 9.13025 7.43426
    endloop
  endfacet
  facet normal 2.00427e-06 0.951554 -0.307481
    outer loop
      vertex 0.896249 8.52724 5.56816
      vertex -0.912314 8.68009 6.04117
      vertex 0.912312 8.68007 6.04112
    endloop
  endfacet
  facet normal 0 0.951552 -0.307488
    outer loop
      vertex -0.912314 8.68009 6.04117
      vertex 0.896249 8.52724 5.56816
      vertex -0.896249 8.52724 5.56816
    endloop
  endfacet
  facet normal 0.197834 0.930774 -0.307444
    outer loop
      vertex 1.01514 8.50197 5.56816
      vertex 0.896249 8.52724 5.56816
      vertex 0.994584 8.53757 5.66271
    endloop
  endfacet
  facet normal 0.346719 -0.477237 -0.807484
    outer loop
      vertex 4.20229 -4.66711 2.41075
      vertex 4.09875 -4.63347 2.34641
      vertex 4.14303 -4.6013 2.34641
    endloop
  endfacet
  facet normal 0.437879 -0.60269 -0.667104
    outer loop
      vertex 4.61919 -5.13013 3.10271
      vertex 4.10387 -5.13013 2.76446
      vertex 4.20229 -4.66711 2.41075
    endloop
  endfacet
  facet normal -0.645163 -0.372485 -0.667098
    outer loop
      vertex -6.14298 -4.46314 3.8689
      vertex -6.93668 -3.08841 3.8689
      vertex -5.73727 -2.55439 2.41075
    endloop
  endfacet
  facet normal 0.586669 -0.0616625 -0.807476
    outer loop
      vertex 6.06208 -1.23289 2.34641
      vertex 6.22532 -0.522332 2.41075
      vertex 6.14298 -1.30573 2.41075
    endloop
  endfacet
  facet normal 0.586659 -0.0616596 -0.807483
    outer loop
      vertex 6.22532 -0.522332 2.41075
      vertex 6.06208 -1.23289 2.34641
      vertex 6.1504 -0.392571 2.34641
    endloop
  endfacet
  facet normal -0.438373 -0.394711 -0.807485
    outer loop
      vertex -5.0808 -3.69142 2.41075
      vertex -4.17965 -4.56063 2.34641
      vertex -4.20229 -4.66711 2.41075
    endloop
  endfacet
  facet normal -0.438393 -0.394732 -0.807464
    outer loop
      vertex -4.17965 -4.56063 2.34641
      vertex -5.0808 -3.69142 2.41075
      vertex -5.00916 -3.63937 2.34641
    endloop
  endfacet
  facet normal -0.824067 -0.475777 -0.30749
    outer loop
      vertex -7.48377 -5.13013 7.17414
      vertex -7.97333 -3.54995 6.04115
      vertex -7.83293 -3.48744 5.56816
    endloop
  endfacet
  facet normal -0.824073 -0.475772 -0.307481
    outer loop
      vertex -7.97333 -3.54995 6.04115
      vertex -7.48377 -5.13013 7.17414
      vertex -8.23323 -4.00012 7.43426
    endloop
  endfacet
  facet normal -0.824076 -0.47578 -0.30746
    outer loop
      vertex -8.23323 -4.00012 7.43426
      vertex -7.48377 -5.13013 7.17414
      vertex -7.58082 -5.13013 7.43426
    endloop
  endfacet
  facet normal -0.824068 -0.475776 -0.307487
    outer loop
      vertex -7.06101 -5.13013 6.04115
      vertex -7.83293 -3.48744 5.56816
      vertex -6.93668 -5.03979 5.56816
    endloop
  endfacet
  facet normal -0.824067 -0.475777 -0.30749
    outer loop
      vertex -7.83293 -3.48744 5.56816
      vertex -7.06101 -5.13013 6.04115
      vertex -7.48377 -5.13013 7.17414
    endloop
  endfacet
  facet normal -0.707146 -0.636698 -0.307507
    outer loop
      vertex -6.89646 -5.13013 5.66272
      vertex -6.93668 -5.03979 5.56816
      vertex -6.85534 -5.13013 5.56816
    endloop
  endfacet
  facet normal 0 0.74497 -0.667098
    outer loop
      vertex 0.656461 6.24582 2.41075
      vertex -0.793699 7.55155 3.8689
      vertex 0.793699 7.55155 3.8689
    endloop
  endfacet
  facet normal 0 0.74497 -0.667098
    outer loop
      vertex -0.793699 7.55155 3.8689
      vertex 0.656461 6.24582 2.41075
      vertex -0.656461 6.24582 2.41075
    endloop
  endfacet
  facet normal -0.19782 0.930786 -0.307417
    outer loop
      vertex -0.896249 8.52724 5.56816
      vertex -1.01515 8.50197 5.56816
      vertex -0.994593 8.53757 5.66272
    endloop
  endfacet
  facet normal -0.19789 0.930748 -0.307486
    outer loop
      vertex -0.896249 8.52724 5.56816
      vertex -0.994593 8.53757 5.66272
      vertex -0.912314 8.68009 6.04117
    endloop
  endfacet
  facet normal 0.861332 -0.497292 -0.103964
    outer loop
      vertex 7.81635 -5.13013 9.38564
      vertex 8.32545 -4.15987 8.96243
      vertex 8.35099 -4.20411 9.38564
    endloop
  endfacet
  facet normal 0.861333 -0.49729 -0.103959
    outer loop
      vertex 8.32545 -4.15987 8.96243
      vertex 7.81635 -5.13013 9.38564
      vertex 7.62052 -5.13013 7.76312
    endloop
  endfacet
  facet normal -0.70851 -0.230206 -0.667098
    outer loop
      vertex -5.73727 -2.55439 2.41075
      vertex -6.93668 -3.08841 3.8689
      vertex -6.14298 -1.30573 2.41075
    endloop
  endfacet
  facet normal -0.644463 -0.580277 -0.497942
    outer loop
      vertex -6.00121 -5.13013 4.46269
      vertex -6.14298 -4.46314 3.8689
      vertex -5.54242 -5.13013 3.8689
    endloop
  endfacet
  facet normal -0.644467 -0.580275 -0.49794
    outer loop
      vertex -6.00121 -5.13013 4.46269
      vertex -6.93668 -5.03979 5.56816
      vertex -6.14298 -4.46314 3.8689
    endloop
  endfacet
  facet normal -0.644471 -0.580266 -0.497944
    outer loop
      vertex -6.93668 -5.03979 5.56816
      vertex -6.00121 -5.13013 4.46269
      vertex -6.85534 -5.13013 5.56816
    endloop
  endfacet
  facet normal -0.437879 -0.60269 -0.667104
    outer loop
      vertex -4.10387 -5.13013 2.76446
      vertex -4.61919 -5.13013 3.10271
      vertex -4.20229 -4.66711 2.41075
    endloop
  endfacet
  facet normal 0.122653 0.577018 -0.807469
    outer loop
      vertex 1.85979 5.9 2.34641
      vertex 0.656461 6.24582 2.41075
      vertex 1.94069 5.97284 2.41075
    endloop
  endfacet
  facet normal 0.122638 0.576971 -0.807505
    outer loop
      vertex 0.656461 6.24582 2.41075
      vertex 1.85979 5.9 2.34641
      vertex 0.647204 6.15774 2.34641
    endloop
  endfacet
  facet normal 0.154893 0.72869 -0.667098
    outer loop
      vertex 1.94069 5.97284 2.41075
      vertex 0.656461 6.24582 2.41075
      vertex 0.793699 7.55155 3.8689
    endloop
  endfacet
  facet normal 0 0.58986 -0.807505
    outer loop
      vertex -0.647204 6.15774 2.34641
      vertex 0.656461 6.24582 2.41075
      vertex 0.647204 6.15774 2.34641
    endloop
  endfacet
  facet normal 0 0.58986 -0.807505
    outer loop
      vertex 0.656461 6.24582 2.41075
      vertex -0.647204 6.15774 2.34641
      vertex -0.656461 6.24582 2.41075
    endloop
  endfacet
  facet normal -0.180281 0.848262 -0.497947
    outer loop
      vertex -0.896249 8.52724 5.56816
      vertex -1.1135 8.33163 5.31359
      vertex -1.01515 8.50197 5.56816
    endloop
  endfacet
  facet normal -0.180289 0.848263 -0.497941
    outer loop
      vertex -0.793699 7.55155 3.8689
      vertex -1.1135 8.33163 5.31359
      vertex -0.896249 8.52724 5.56816
    endloop
  endfacet
  facet normal -0.180307 0.848259 -0.497942
    outer loop
      vertex -1.1135 8.33163 5.31359
      vertex -0.793699 7.55155 3.8689
      vertex -1.67161 7.36494 3.8689
    endloop
  endfacet
  facet normal -0.122638 0.576971 -0.807505
    outer loop
      vertex -1.85979 5.9 2.34641
      vertex -0.656461 6.24582 2.41075
      vertex -0.647204 6.15774 2.34641
    endloop
  endfacet
  facet normal -0.122653 0.577018 -0.807469
    outer loop
      vertex -0.656461 6.24582 2.41075
      vertex -1.85979 5.9 2.34641
      vertex -1.94069 5.97284 2.41075
    endloop
  endfacet
  facet normal -0.154893 0.72869 -0.667098
    outer loop
      vertex -0.656461 6.24582 2.41075
      vertex -1.94069 5.97284 2.41075
      vertex -0.793699 7.55155 3.8689
    endloop
  endfacet
  facet normal 0.122647 0.577022 -0.807467
    outer loop
      vertex 1.91333 5.88862 2.34641
      vertex 1.85979 5.9 2.34641
      vertex 1.94069 5.97284 2.41075
    endloop
  endfacet
  facet normal 0.239935 0.538907 -0.807471
    outer loop
      vertex 1.91333 5.88862 2.34641
      vertex 2.66031 5.65245 2.41075
      vertex 2.73523 5.52269 2.34641
    endloop
  endfacet
  facet normal 0.239937 0.538917 -0.807464
    outer loop
      vertex 2.66031 5.65245 2.41075
      vertex 1.91333 5.88862 2.34641
      vertex 1.94069 5.97284 2.41075
    endloop
  endfacet
  facet normal 0.904958 -0.294114 -0.307487
    outer loop
      vertex 7.97331 -3.54995 6.0411
      vertex 7.83293 -3.48744 5.56816
      vertex 7.89105 -3.40746 5.66271
    endloop
  endfacet
  facet normal -0.510893 -0.294967 -0.807455
    outer loop
      vertex -5.73727 -2.55439 2.41075
      vertex -5.03653 -3.59197 2.34641
      vertex -5.0808 -3.69142 2.41075
    endloop
  endfacet
  facet normal -0.510885 -0.294961 -0.807462
    outer loop
      vertex -5.03653 -3.59197 2.34641
      vertex -5.73727 -2.55439 2.41075
      vertex -5.65637 -2.51838 2.34641
    endloop
  endfacet
  facet normal -0.56104 -0.182291 -0.807468
    outer loop
      vertex -5.73727 -2.55439 2.41075
      vertex -6.03945 -1.33937 2.34641
      vertex -5.65637 -2.51838 2.34641
    endloop
  endfacet
  facet normal -0.561042 -0.182292 -0.807466
    outer loop
      vertex -6.03945 -1.33937 2.34641
      vertex -5.73727 -2.55439 2.41075
      vertex -6.14298 -1.30573 2.41075
    endloop
  endfacet
  facet normal -0.553629 -0.498467 -0.667102
    outer loop
      vertex -5.54242 -5.13013 3.8689
      vertex -4.20229 -4.66711 2.41075
      vertex -4.61919 -5.13013 3.10271
    endloop
  endfacet
  facet normal -0.55362 -0.498482 -0.667099
    outer loop
      vertex -4.20229 -4.66711 2.41075
      vertex -5.54242 -5.13013 3.8689
      vertex -6.14298 -4.46314 3.8689
    endloop
  endfacet
  facet normal -0.553621 -0.498479 -0.6671
    outer loop
      vertex -4.20229 -4.66711 2.41075
      vertex -6.14298 -4.46314 3.8689
      vertex -5.0808 -3.69142 2.41075
    endloop
  endfacet
  facet normal 0.346726 -0.477225 -0.807489
    outer loop
      vertex 3.565 -5.13013 2.41075
      vertex 4.09875 -4.63347 2.34641
      vertex 4.20229 -4.66711 2.41075
    endloop
  endfacet
  facet normal 0.346744 -0.477242 -0.80747
    outer loop
      vertex 4.09875 -4.63347 2.34641
      vertex 3.565 -5.13013 2.41075
      vertex 3.41517 -5.13013 2.34641
    endloop
  endfacet
  facet normal -0.346744 -0.477242 -0.80747
    outer loop
      vertex -3.565 -5.13013 2.41075
      vertex -4.09875 -4.63347 2.34641
      vertex -3.41517 -5.13013 2.34641
    endloop
  endfacet
  facet normal -0.346726 -0.477225 -0.807489
    outer loop
      vertex -4.09875 -4.63347 2.34641
      vertex -3.565 -5.13013 2.41075
      vertex -4.20229 -4.66711 2.41075
    endloop
  endfacet
  facet normal -0.437881 -0.602689 -0.667103
    outer loop
      vertex -4.10387 -5.13013 2.76446
      vertex -4.20229 -4.66711 2.41075
      vertex -3.565 -5.13013 2.41075
    endloop
  endfacet
  facet normal -0.510864 -0.294986 -0.807466
    outer loop
      vertex -5.00916 -3.63937 2.34641
      vertex -5.0808 -3.69142 2.41075
      vertex -5.03653 -3.59197 2.34641
    endloop
  endfacet
  facet normal 0 1 -0
    outer loop
      vertex 0.534638 9.33422 9.38564
      vertex -0.534647 9.33422 70
      vertex 0.534638 9.33422 70
    endloop
  endfacet
  facet normal 0 1 0
    outer loop
      vertex -0.534647 9.33422 70
      vertex 0.534638 9.33422 9.38564
      vertex -0.534647 9.33422 9.38564
    endloop
  endfacet
  facet normal 0.866025 -0.500001 0
    outer loop
      vertex 7.81635 -5.13013 70
      vertex 8.35099 -4.20411 9.38564
      vertex 8.35099 -4.20411 70
    endloop
  endfacet
  facet normal 0.866025 -0.500001 0
    outer loop
      vertex 8.35099 -4.20411 9.38564
      vertex 7.81635 -5.13013 70
      vertex 7.81635 -5.13013 9.38564
    endloop
  endfacet
  facet normal -0.866023 -0.500004 0
    outer loop
      vertex -7.81635 -5.13013 9.38564
      vertex -8.351 -4.2041 70
      vertex -8.351 -4.2041 9.38564
    endloop
  endfacet
  facet normal -0.866023 -0.500004 0
    outer loop
      vertex -8.351 -4.2041 70
      vertex -7.81635 -5.13013 9.38564
      vertex -7.81635 -5.13013 70
    endloop
  endfacet
  facet normal 0 -1 0
    outer loop
      vertex -7.81635 -5.13013 9.38564
      vertex 7.81635 -5.13013 70
      vertex -7.81635 -5.13013 70
    endloop
  endfacet
  facet normal 0 -1 0
    outer loop
      vertex -7.81635 -5.13013 9.38564
      vertex 7.81635 -5.13013 9.38564
      vertex 7.81635 -5.13013 70
    endloop
  endfacet
  facet normal 0 -1 0
    outer loop
      vertex -7.62052 -5.13013 7.76312
      vertex 7.81635 -5.13013 9.38564
      vertex -7.81635 -5.13013 9.38564
    endloop
  endfacet
  facet normal 0 -1 0
    outer loop
      vertex -7.62052 -5.13013 7.76312
      vertex 7.62052 -5.13013 7.76312
      vertex 7.81635 -5.13013 9.38564
    endloop
  endfacet
  facet normal 0 -1 0
    outer loop
      vertex -7.48377 -5.13013 7.17414
      vertex -7.62052 -5.13013 7.76312
      vertex -7.58082 -5.13013 7.43426
    endloop
  endfacet
  facet normal 0 -1 0
    outer loop
      vertex -6.00121 -5.13013 4.46269
      vertex -7.62052 -5.13013 7.76312
      vertex -7.48377 -5.13013 7.17414
    endloop
  endfacet
  facet normal 0 -1 0
    outer loop
      vertex -7.62052 -5.13013 7.76312
      vertex -6.00121 -5.13013 4.46269
      vertex 7.62052 -5.13013 7.76312
    endloop
  endfacet
  facet normal 0 -1 0
    outer loop
      vertex 7.62052 -5.13013 7.76312
      vertex 7.48377 -5.13013 7.17414
      vertex 7.58082 -5.13013 7.43426
    endloop
  endfacet
  facet normal 0 -1 0
    outer loop
      vertex -6.00121 -5.13013 4.46269
      vertex -7.48377 -5.13013 7.17414
      vertex -7.06101 -5.13013 6.04115
    endloop
  endfacet
  facet normal 0 -1 0
    outer loop
      vertex 6.00121 -5.13013 4.46269
      vertex 7.62052 -5.13013 7.76312
      vertex -6.00121 -5.13013 4.46269
    endloop
  endfacet
  facet normal 0 -1 0
    outer loop
      vertex -6.00121 -5.13013 4.46269
      vertex -7.06101 -5.13013 6.04115
      vertex -6.89646 -5.13013 5.66272
    endloop
  endfacet
  facet normal 0 -1 0
    outer loop
      vertex 7.62052 -5.13013 7.76312
      vertex 6.00121 -5.13013 4.46269
      vertex 7.48377 -5.13013 7.17414
    endloop
  endfacet
  facet normal 0 -1 0
    outer loop
      vertex -6.00121 -5.13013 4.46269
      vertex -6.89646 -5.13013 5.66272
      vertex -6.85534 -5.13013 5.56816
    endloop
  endfacet
  facet normal 0 -1 0
    outer loop
      vertex 7.48377 -5.13013 7.17414
      vertex 6.00121 -5.13013 4.46269
      vertex 7.06101 -5.13013 6.04115
    endloop
  endfacet
  facet normal 0 -1 0
    outer loop
      vertex 7.06101 -5.13013 6.04115
      vertex 6.00121 -5.13013 4.46269
      vertex 6.89646 -5.13013 5.66272
    endloop
  endfacet
  facet normal 0 -1 0
    outer loop
      vertex 6.89646 -5.13013 5.66272
      vertex 6.00121 -5.13013 4.46269
      vertex 6.85534 -5.13013 5.56816
    endloop
  endfacet
  facet normal 0 -1 0
    outer loop
      vertex -4.61919 -5.13013 3.10271
      vertex -6.00121 -5.13013 4.46269
      vertex -5.54242 -5.13013 3.8689
    endloop
  endfacet
  facet normal 0 -1 0
    outer loop
      vertex -4.10387 -5.13013 2.76446
      vertex -6.00121 -5.13013 4.46269
      vertex -4.61919 -5.13013 3.10271
    endloop
  endfacet
  facet normal 0 -1 0
    outer loop
      vertex -6.00121 -5.13013 4.46269
      vertex -4.10387 -5.13013 2.76446
      vertex 6.00121 -5.13013 4.46269
    endloop
  endfacet
  facet normal 0 -1 0
    outer loop
      vertex 6.00121 -5.13013 4.46269
      vertex 4.61919 -5.13013 3.10271
      vertex 5.54242 -5.13013 3.8689
    endloop
  endfacet
  facet normal 0 -1 0
    outer loop
      vertex 4.10387 -5.13013 2.76446
      vertex 6.00121 -5.13013 4.46269
      vertex -4.10387 -5.13013 2.76446
    endloop
  endfacet
  facet normal 0 -1 0
    outer loop
      vertex 6.00121 -5.13013 4.46269
      vertex 4.10387 -5.13013 2.76446
      vertex 4.61919 -5.13013 3.10271
    endloop
  endfacet
  facet normal 0 -1 0
    outer loop
      vertex -3.41517 -5.13013 2.34641
      vertex -4.10387 -5.13013 2.76446
      vertex -3.565 -5.13013 2.41075
    endloop
  endfacet
  facet normal 0 -1 0
    outer loop
      vertex -4.10387 -5.13013 2.76446
      vertex -3.41517 -5.13013 2.34641
      vertex 4.10387 -5.13013 2.76446
    endloop
  endfacet
  facet normal 0 -1 0
    outer loop
      vertex 3.41517 -5.13013 2.34641
      vertex 4.10387 -5.13013 2.76446
      vertex -3.41517 -5.13013 2.34641
    endloop
  endfacet
  facet normal 0 -1 0
    outer loop
      vertex 4.10387 -5.13013 2.76446
      vertex 3.41517 -5.13013 2.34641
      vertex 3.565 -5.13013 2.41075
    endloop
  endfacet
  facet normal 0.866026 0.5 0
    outer loop
      vertex 8.35099 -4.20411 9.38564
      vertex 0.534638 9.33422 9.38564
      vertex 0.534638 9.33422 70
    endloop
  endfacet
  facet normal 0.866026 0.5 4.00009e-06
    outer loop
      vertex 8.32545 -4.15987 8.96243
      vertex 0.534638 9.33422 9.38564
      vertex 8.35099 -4.20411 9.38564
    endloop
  endfacet
  facet normal 0.866026 0.5 1.30618e-06
    outer loop
      vertex 0.534638 9.33422 9.38564
      vertex 8.32545 -4.15987 8.96243
      vertex 0.652403 9.13025 7.43426
    endloop
  endfacet
  facet normal 0.866025 0.5 3.35187e-06
    outer loop
      vertex 8.23323 -4.00013 7.43426
      vertex 0.652403 9.13025 7.43426
      vertex 8.32545 -4.15987 8.96243
    endloop
  endfacet
  facet normal 0.866025 0.5 -1.55113e-06
    outer loop
      vertex 0.652403 9.13025 7.43426
      vertex 8.23323 -4.00013 7.43426
      vertex 0.912312 8.68007 6.04112
    endloop
  endfacet
  facet normal 0.865983 0.500073 -3.77952e-05
    outer loop
      vertex 0.912312 8.68007 6.04112
      vertex 1.11348 8.33165 5.31362
      vertex 0.994584 8.53757 5.66271
    endloop
  endfacet
  facet normal 0.866028 0.499995 2.38479e-05
    outer loop
      vertex 0.994584 8.53757 5.66271
      vertex 1.11348 8.33165 5.31362
      vertex 1.01514 8.50197 5.56816
    endloop
  endfacet
  facet normal 0.866026 0.5 -5.42429e-06
    outer loop
      vertex 7.97331 -3.54995 6.0411
      vertex 0.912312 8.68007 6.04112
      vertex 8.23323 -4.00013 7.43426
    endloop
  endfacet
  facet normal 0.866026 0.5 9.31891e-06
    outer loop
      vertex 0.912312 8.68007 6.04112
      vertex 7.97331 -3.54995 6.0411
      vertex 1.11348 8.33165 5.31362
    endloop
  endfacet
  facet normal 0.866026 0.499999 -5.6414e-06
    outer loop
      vertex 1.11348 8.33165 5.31362
      vertex 7.77216 -3.20154 5.31363
      vertex 1.6716 7.36494 3.8689
    endloop
  endfacet
  facet normal 0.866025 0.5 -3.97895e-07
    outer loop
      vertex 1.6716 7.36494 3.8689
      vertex 7.77216 -3.20154 5.31363
      vertex 2.13322 6.56539 3.10271
    endloop
  endfacet
  facet normal 0.866026 0.5 -1.66376e-06
    outer loop
      vertex 6.7524 -1.43527 3.1027
      vertex 2.13322 6.56539 3.10271
      vertex 7.77216 -3.20154 5.31363
    endloop
  endfacet
  facet normal 0.866026 0.5 1.55517e-05
    outer loop
      vertex 2.13322 6.56539 3.10271
      vertex 6.7524 -1.43527 3.1027
      vertex 2.39088 6.11912 2.76446
    endloop
  endfacet
  facet normal 0.866026 0.499999 -7.1892e-06
    outer loop
      vertex 2.73523 5.52269 2.34641
      vertex 6.49475 -0.988998 2.76445
      vertex 6.1504 -0.392571 2.34641
    endloop
  endfacet
  facet normal 0.866005 0.500035 6.05935e-05
    outer loop
      vertex 6.1504 -0.392571 2.34641
      vertex 6.49475 -0.988998 2.76445
      vertex 6.22532 -0.522332 2.41075
    endloop
  endfacet
  facet normal 0.866026 0.5 1.28481e-05
    outer loop
      vertex 6.49475 -0.988998 2.76445
      vertex 2.39088 6.11912 2.76446
      vertex 6.7524 -1.43527 3.1027
    endloop
  endfacet
  facet normal 0.866026 0.5 2.69558e-06
    outer loop
      vertex 2.39088 6.11912 2.76446
      vertex 6.49475 -0.988998 2.76445
      vertex 2.73523 5.52269 2.34641
    endloop
  endfacet
  facet normal 0.866009 0.500029 2.9489e-05
    outer loop
      vertex 6.7524 -1.43527 3.1027
      vertex 7.77216 -3.20154 5.31363
      vertex 7.21403 -2.23482 3.8689
    endloop
  endfacet
  facet normal 0.865997 0.500049 -9.1642e-05
    outer loop
      vertex 2.39088 6.11912 2.76446
      vertex 2.73523 5.52269 2.34641
      vertex 2.66031 5.65245 2.41075
    endloop
  endfacet
  facet normal 0.866026 0.5 -5.20428e-06
    outer loop
      vertex 7.77216 -3.20154 5.31363
      vertex 7.89105 -3.40746 5.66271
      vertex 7.87049 -3.37185 5.56816
    endloop
  endfacet
  facet normal 0.866026 0.499999 5.11255e-06
    outer loop
      vertex 7.77216 -3.20154 5.31363
      vertex 1.11348 8.33165 5.31362
      vertex 7.97331 -3.54995 6.0411
    endloop
  endfacet
  facet normal 0.866026 0.5 -0
    outer loop
      vertex 8.35099 -4.20411 9.38564
      vertex 0.534638 9.33422 70
      vertex 8.35099 -4.20411 70
    endloop
  endfacet
  facet normal 0.865984 0.500071 5.09215e-05
    outer loop
      vertex 7.77216 -3.20154 5.31363
      vertex 7.97331 -3.54995 6.0411
      vertex 7.89105 -3.40746 5.66271
    endloop
  endfacet
  facet normal 0 0 1
    outer loop
      vertex 0.534638 9.33422 70
      vertex 7.81635 -5.13013 70
      vertex 8.35099 -4.20411 70
    endloop
  endfacet
  facet normal -0 0 1
    outer loop
      vertex -0.534647 9.33422 70
      vertex 7.81635 -5.13013 70
      vertex 0.534638 9.33422 70
    endloop
  endfacet
  facet normal 0 0 1
    outer loop
      vertex -0.534647 9.33422 70
      vertex -7.81635 -5.13013 70
      vertex 7.81635 -5.13013 70
    endloop
  endfacet
  facet normal 0 -0 1
    outer loop
      vertex -7.81635 -5.13013 70
      vertex -0.534647 9.33422 70
      vertex -8.351 -4.2041 70
    endloop
  endfacet
  facet normal -0.866025 0.5 1.2606e-06
    outer loop
      vertex -8.32546 -4.15986 8.96244
      vertex -0.534647 9.33422 9.38564
      vertex -0.652412 9.13025 7.43426
    endloop
  endfacet
  facet normal -0.866026 0.5 1.34426e-06
    outer loop
      vertex -8.23323 -4.00012 7.43426
      vertex -0.652412 9.13025 7.43426
      vertex -0.912314 8.68009 6.04117
    endloop
  endfacet
  facet normal -0.865965 0.500105 -6.41755e-05
    outer loop
      vertex -1.1135 8.33163 5.31359
      vertex -0.912314 8.68009 6.04117
      vertex -0.994593 8.53757 5.66272
    endloop
  endfacet
  facet normal -0.86605 0.499958 5.15573e-05
    outer loop
      vertex -1.1135 8.33163 5.31359
      vertex -0.994593 8.53757 5.66272
      vertex -1.01515 8.50197 5.56816
    endloop
  endfacet
  facet normal -0.866025 0.5 3.03575e-06
    outer loop
      vertex -7.97333 -3.54995 6.04115
      vertex -0.912314 8.68009 6.04117
      vertex -1.1135 8.33163 5.31359
    endloop
  endfacet
  facet normal -0.866026 0.499999 -4.65727e-06
    outer loop
      vertex -7.77215 -3.20151 5.3136
      vertex -1.1135 8.33163 5.31359
      vertex -1.67161 7.36494 3.8689
    endloop
  endfacet
  facet normal -0.866025 0.5 5.5137e-06
    outer loop
      vertex -7.77215 -3.20151 5.3136
      vertex -1.67161 7.36494 3.8689
      vertex -2.13323 6.5654 3.10272
    endloop
  endfacet
  facet normal -0.866026 0.499999 1.59419e-06
    outer loop
      vertex -6.75241 -1.43527 3.10272
      vertex -2.13323 6.5654 3.10272
      vertex -2.39089 6.11912 2.76446
    endloop
  endfacet
  facet normal -0.865988 0.500064 -0.000132524
    outer loop
      vertex -2.73524 5.52268 2.34641
      vertex -2.39089 6.11912 2.76446
      vertex -2.66032 5.65244 2.41075
    endloop
  endfacet
  facet normal -0.866025 0.5 -9.86685e-06
    outer loop
      vertex -6.49476 -0.988992 2.76446
      vertex -2.39089 6.11912 2.76446
      vertex -2.73524 5.52268 2.34641
    endloop
  endfacet
  facet normal -0.866026 0.5 -1.62145e-05
    outer loop
      vertex -6.49476 -0.988992 2.76446
      vertex -2.73524 5.52268 2.34641
      vertex -6.1504 -0.392556 2.34641
    endloop
  endfacet
  facet normal -0.866013 0.500022 2.65807e-05
    outer loop
      vertex -6.49476 -0.988992 2.76446
      vertex -6.1504 -0.392556 2.34641
      vertex -6.22532 -0.522317 2.41075
    endloop
  endfacet
  facet normal -0.866025 0.5 2.22735e-05
    outer loop
      vertex -2.39089 6.11912 2.76446
      vertex -6.49476 -0.988992 2.76446
      vertex -6.75241 -1.43527 3.10272
    endloop
  endfacet
  facet normal -0.866026 0.499999 -1.11347e-06
    outer loop
      vertex -2.13323 6.5654 3.10272
      vertex -6.75241 -1.43527 3.10272
      vertex -7.77215 -3.20151 5.3136
    endloop
  endfacet
  facet normal -0.866015 0.500018 1.83664e-05
    outer loop
      vertex -7.77215 -3.20151 5.3136
      vertex -6.75241 -1.43527 3.10272
      vertex -7.21403 -2.23481 3.8689
    endloop
  endfacet
  facet normal -0.866026 0.499999 -1.00216e-05
    outer loop
      vertex -1.1135 8.33163 5.31359
      vertex -7.77215 -3.20151 5.3136
      vertex -7.97333 -3.54995 6.04115
    endloop
  endfacet
  facet normal -0.866033 0.499986 -1.19792e-05
    outer loop
      vertex -7.89105 -3.40745 5.66272
      vertex -7.77215 -3.20151 5.3136
      vertex -7.87049 -3.37184 5.56816
    endloop
  endfacet
  facet normal -0.866058 0.499943 -4.58837e-05
    outer loop
      vertex -7.97333 -3.54995 6.04115
      vertex -7.77215 -3.20151 5.3136
      vertex -7.89105 -3.40745 5.66272
    endloop
  endfacet
  facet normal -0.866025 0.5 3.56706e-06
    outer loop
      vertex -0.912314 8.68009 6.04117
      vertex -7.97333 -3.54995 6.04115
      vertex -8.23323 -4.00012 7.43426
    endloop
  endfacet
  facet normal -0.866026 0.5 -2.33744e-06
    outer loop
      vertex -0.652412 9.13025 7.43426
      vertex -8.23323 -4.00012 7.43426
      vertex -8.32546 -4.15986 8.96244
    endloop
  endfacet
  facet normal -0.866025 0.5 4.04548e-06
    outer loop
      vertex -0.534647 9.33422 9.38564
      vertex -8.32546 -4.15986 8.96244
      vertex -8.351 -4.2041 9.38564
    endloop
  endfacet
  facet normal -0.866025 0.5 0
    outer loop
      vertex -0.534647 9.33422 9.38564
      vertex -8.351 -4.2041 9.38564
      vertex -0.534647 9.33422 70
    endloop
  endfacet
  facet normal -0.866025 0.5 0
    outer loop
      vertex -0.534647 9.33422 70
      vertex -8.351 -4.2041 9.38564
      vertex -8.351 -4.2041 70
    endloop
  endfacet
  facet normal 0 0 -1
    outer loop
      vertex 6.03945 -1.33937 2.34641
      vertex 6.06208 -1.23289 2.34641
      vertex 6.05636 -1.28732 2.34641
    endloop
  endfacet
  facet normal -0 0 -1
    outer loop
      vertex 6.06208 -1.23289 2.34641
      vertex 6.03945 -1.33937 2.34641
      vertex 6.1504 -0.392571 2.34641
    endloop
  endfacet
  facet normal 0 0 -1
    outer loop
      vertex 5.65637 -2.51838 2.34641
      vertex 6.1504 -0.392571 2.34641
      vertex 6.03945 -1.33937 2.34641
    endloop
  endfacet
  facet normal 0 0 -1
    outer loop
      vertex 5.03653 -3.59197 2.34641
      vertex 6.1504 -0.392571 2.34641
      vertex 5.65637 -2.51838 2.34641
    endloop
  endfacet
  facet normal 0 0 -1
    outer loop
      vertex 4.17965 -4.56063 2.34641
      vertex 5.03653 -3.59197 2.34641
      vertex 5.00916 -3.63937 2.34641
    endloop
  endfacet
  facet normal 0 0 -1
    outer loop
      vertex 5.03653 -3.59197 2.34641
      vertex 4.17965 -4.56063 2.34641
      vertex 3.41517 -5.13013 2.34641
    endloop
  endfacet
  facet normal 0 0 -1
    outer loop
      vertex 4.09875 -4.63347 2.34641
      vertex 4.17965 -4.56063 2.34641
      vertex 4.14303 -4.6013 2.34641
    endloop
  endfacet
  facet normal 0 0 -1
    outer loop
      vertex 3.41517 -5.13013 2.34641
      vertex 4.17965 -4.56063 2.34641
      vertex 4.09875 -4.63347 2.34641
    endloop
  endfacet
  facet normal -0 0 -1
    outer loop
      vertex 5.03653 -3.59197 2.34641
      vertex 3.41517 -5.13013 2.34641
      vertex 6.1504 -0.392571 2.34641
    endloop
  endfacet
  facet normal 0 0 -1
    outer loop
      vertex 3.41517 -5.13013 2.34641
      vertex 2.73523 5.52269 2.34641
      vertex 6.1504 -0.392571 2.34641
    endloop
  endfacet
  facet normal 0 0 -1
    outer loop
      vertex -2.73524 5.52268 2.34641
      vertex 2.73523 5.52269 2.34641
      vertex 3.41517 -5.13013 2.34641
    endloop
  endfacet
  facet normal 0 0 -1
    outer loop
      vertex 2.73523 5.52269 2.34641
      vertex 1.85979 5.9 2.34641
      vertex 1.91333 5.88862 2.34641
    endloop
  endfacet
  facet normal 0 -0 -1
    outer loop
      vertex 0.647204 6.15774 2.34641
      vertex 2.73523 5.52269 2.34641
      vertex -2.73524 5.52268 2.34641
    endloop
  endfacet
  facet normal 0 0 -1
    outer loop
      vertex 2.73523 5.52269 2.34641
      vertex 0.647204 6.15774 2.34641
      vertex 1.85979 5.9 2.34641
    endloop
  endfacet
  facet normal -0 0 -1
    outer loop
      vertex 0.647204 6.15774 2.34641
      vertex -2.73524 5.52268 2.34641
      vertex -0.647204 6.15774 2.34641
    endloop
  endfacet
  facet normal 0 0 -1
    outer loop
      vertex -0.647204 6.15774 2.34641
      vertex -2.73524 5.52268 2.34641
      vertex -1.85979 5.9 2.34641
    endloop
  endfacet
  facet normal 0 0 -1
    outer loop
      vertex -1.85979 5.9 2.34641
      vertex -2.73524 5.52268 2.34641
      vertex -1.91333 5.88862 2.34641
    endloop
  endfacet
  facet normal 0 0 -1
    outer loop
      vertex -3.41517 -5.13013 2.34641
      vertex -2.73524 5.52268 2.34641
      vertex 3.41517 -5.13013 2.34641
    endloop
  endfacet
  facet normal 0 0 -1
    outer loop
      vertex -4.17965 -4.56063 2.34641
      vertex -3.41517 -5.13013 2.34641
      vertex -4.09875 -4.63347 2.34641
    endloop
  endfacet
  facet normal 0 0 -1
    outer loop
      vertex -4.17965 -4.56063 2.34641
      vertex -4.09875 -4.63347 2.34641
      vertex -4.14303 -4.6013 2.34641
    endloop
  endfacet
  facet normal 0 0 -1
    outer loop
      vertex -5.03653 -3.59197 2.34641
      vertex -3.41517 -5.13013 2.34641
      vertex -4.17965 -4.56063 2.34641
    endloop
  endfacet
  facet normal 0 0 -1
    outer loop
      vertex -5.03653 -3.59197 2.34641
      vertex -4.17965 -4.56063 2.34641
      vertex -5.00916 -3.63937 2.34641
    endloop
  endfacet
  facet normal 0 0 -1
    outer loop
      vertex -6.1504 -0.392556 2.34641
      vertex -3.41517 -5.13013 2.34641
      vertex -5.03653 -3.59197 2.34641
    endloop
  endfacet
  facet normal 0 0 -1
    outer loop
      vertex -6.1504 -0.392556 2.34641
      vertex -5.03653 -3.59197 2.34641
      vertex -5.65637 -2.51838 2.34641
    endloop
  endfacet
  facet normal 0 0 -1
    outer loop
      vertex -6.1504 -0.392556 2.34641
      vertex -5.65637 -2.51838 2.34641
      vertex -6.03945 -1.33937 2.34641
    endloop
  endfacet
  facet normal 0 0 -1
    outer loop
      vertex -6.06208 -1.23289 2.34641
      vertex -6.03945 -1.33937 2.34641
      vertex -6.05636 -1.28732 2.34641
    endloop
  endfacet
  facet normal 0 0 -1
    outer loop
      vertex -6.1504 -0.392556 2.34641
      vertex -6.03945 -1.33937 2.34641
      vertex -6.06208 -1.23289 2.34641
    endloop
  endfacet
  facet normal 0 0 -1
    outer loop
      vertex -3.41517 -5.13013 2.34641
      vertex -6.1504 -0.392556 2.34641
      vertex -2.73524 5.52268 2.34641
    endloop
  endfacet
endsolid OpenSCAD_Model
